<?xml version="1.0" encoding="UTF-8" standalone="no"?>
<!-- Copyright (c) 1993,2000 NIC.br -->
<!-- SIMET and the SIMET Logo are registered trademarks of NIC.br -->

<svg
   xmlns:dc="http://purl.org/dc/elements/1.1/"
   xmlns:cc="http://creativecommons.org/ns#"
   xmlns:rdf="http://www.w3.org/1999/02/22-rdf-syntax-ns#"
   xmlns:svg="http://www.w3.org/2000/svg"
   xmlns="http://www.w3.org/2000/svg"
   xmlns:sodipodi="http://sodipodi.sourceforge.net/DTD/sodipodi-0.dtd"
   xmlns:inkscape="http://www.inkscape.org/namespaces/inkscape"
   width="32.649998mm"
   height="32.649998mm"
   viewBox="0 0 32.649997 32.649997"
   version="1.1"
   id="svg3768"
   inkscape:version="0.92.4 (5da689c313, 2019-01-14)"
   sodipodi:docname="simet_icone.svg">
  <defs
     id="defs3762" />
  <sodipodi:namedview
     id="base"
     pagecolor="#ffffff"
     bordercolor="#666666"
     borderopacity="1.0"
     inkscape:pageopacity="0.0"
     inkscape:pageshadow="2"
     inkscape:zoom="2.8"
     inkscape:cx="39.655213"
     inkscape:cy="73.318358"
     inkscape:document-units="mm"
     inkscape:current-layer="g4703"
     showgrid="false"
     inkscape:pagecheckerboard="false"
     inkscape:window-width="1920"
     inkscape:window-height="1015"
     inkscape:window-x="0"
     inkscape:window-y="0"
     inkscape:window-maximized="1"
     fit-margin-top="0.4"
     fit-margin-left="0.4"
     fit-margin-bottom="0.4"
     fit-margin-right="0.4" />
  <metadata
     id="metadata3765">
    <rdf:RDF>
      <cc:Work
         rdf:about="">
        <dc:format>image/svg+xml</dc:format>
        <dc:type
           rdf:resource="http://purl.org/dc/dcmitype/StillImage" />
        <dc:title></dc:title>
      </cc:Work>
    </rdf:RDF>
  </metadata>
  <g
     inkscape:label="Layer 1"
     inkscape:groupmode="layer"
     id="layer1"
     transform="translate(-2.5738057,-1.7285695)">
    <g
       id="g36"
       transform="matrix(0.26458333,0,0,0.26458333,-21.503069,-173.37247)">
      <g
         id="g4703">
        <g
           id="g60">
          <g
             id="g22"
             style="stroke:#fffffb;stroke-width:0.37795275;stroke-miterlimit:4;stroke-dasharray:none;stroke-opacity:1">
            <path
               class="st1"
               d="m 131.6,681.5 -5.8,-11.6 c -11.6,5.8 -21.1,15.3 -26.9,26.9 l 11.6,5.8 c 4.6,-9.2 12,-16.6 21.1,-21.1 z"
               id="path6"
               inkscape:connector-curvature="0"
               style="fill:#243b5d;stroke:#fffffb;stroke-width:0.37795275;stroke-miterlimit:4;stroke-dasharray:none;stroke-opacity:1" />
            <path
               class="st1"
               d="m 152.7,676.5 c 5.8,0 11.4,1.1 16.6,3 l 4.6,-12.2 c -6.6,-2.5 -13.7,-3.8 -21.2,-3.8 -7.3,0 -14.4,1.3 -20.9,3.7 l 4.5,12.2 c 5.1,-1.9 10.6,-2.9 16.4,-2.9 z"
               id="path8"
               inkscape:connector-curvature="0"
               style="fill:#243b5d;stroke:#fffffb;stroke-width:0.37795275;stroke-miterlimit:4;stroke-dasharray:none;stroke-opacity:1" />
            <path
               class="st1"
               d="m 194.7,702.5 11.6,-5.8 c -5.8,-11.6 -15.2,-21 -26.8,-26.8 l -5.8,11.6 c 9.1,4.5 16.4,11.9 21,21 z"
               id="path10"
               inkscape:connector-curvature="0"
               style="fill:#243b5d;stroke:#fffffb;stroke-width:0.37795275;stroke-miterlimit:4;stroke-dasharray:none;stroke-opacity:1" />
            <path
               class="st1"
               d="m 105.7,723.5 c 0,-5.8 1,-11.3 3,-16.4 l -12.2,-4.5 c -2.4,6.5 -3.8,13.6 -3.8,21 0,7.5 1.4,14.6 3.8,21.2 l 12.2,-4.6 c -2,-5.3 -3,-10.9 -3,-16.7 z"
               id="path12"
               inkscape:connector-curvature="0"
               style="fill:#243b5d;stroke:#fffffb;stroke-width:0.37795275;stroke-miterlimit:4;stroke-dasharray:none;stroke-opacity:1" />
            <path
               class="st1"
               d="M 110.6,744.5 99,750.3 c 5.8,11.6 15.2,21 26.8,26.8 l 5.8,-11.6 c -9,-4.5 -16.4,-11.9 -21,-21 z"
               id="path14"
               inkscape:connector-curvature="0"
               style="fill:#243b5d;stroke:#fffffb;stroke-width:0.37795275;stroke-miterlimit:4;stroke-dasharray:none;stroke-opacity:1" />
            <path
               class="st1"
               d="m 152.7,770.5 c -5.8,0 -11.3,-1 -16.4,-2.9 l -4.5,12.2 c 6.5,2.4 13.5,3.7 20.9,3.7 7.5,0 14.6,-1.4 21.2,-3.8 l -4.6,-12.2 c -5.2,1.9 -10.8,3 -16.6,3 z"
               id="path16"
               inkscape:connector-curvature="0"
               style="fill:#243b5d;stroke:#fffffb;stroke-width:0.37795275;stroke-miterlimit:4;stroke-dasharray:none;stroke-opacity:1" />
            <path
               class="st1"
               d="m 173.7,765.5 5.8,11.6 c 11.6,-5.8 21,-15.2 26.8,-26.8 l -11.6,-5.8 c -4.6,9.1 -11.9,16.5 -21,21 z"
               id="path18"
               inkscape:connector-curvature="0"
               style="fill:#243b5d;stroke:#fffffb;stroke-width:0.37795275;stroke-miterlimit:4;stroke-dasharray:none;stroke-opacity:1" />
            <path
               class="st1"
               d="m 196.7,707.1 c 1.9,5.1 3,10.6 3,16.4 0,5.8 -1.1,11.4 -3,16.6 l 12.2,4.6 c 2.5,-6.6 3.8,-13.7 3.8,-21.2 0,-7.4 -1.3,-14.4 -3.8,-21 z"
               id="path20"
               inkscape:connector-curvature="0"
               style="fill:#243b5d;stroke:#fffffb;stroke-width:0.37795275;stroke-miterlimit:4;stroke-dasharray:none;stroke-opacity:1" />
          </g>
          <circle
             class="st1"
             cx="152.7"
             cy="723.5"
             r="5"
             id="circle24"
             style="fill:#243b5d" />
          <g
             id="g32"
             style="stroke:#000000;stroke-width:0.37795275;stroke-miterlimit:4;stroke-dasharray:none;stroke-opacity:1">
            <g
               id="g30"
               style="stroke:#000000;stroke-width:0.37795275;stroke-miterlimit:4;stroke-dasharray:none;stroke-opacity:1">
              <path
                 class="st2"
                 d="m 166.7,707 14.9,-11.2 c -7.3,-7.7 -17.6,-12.4 -29,-12.4 -21.1,0 -38.5,16.4 -40,37.1 1.3,-12.8 14.5,-22.9 30.6,-22.9 9.5,0.1 17.9,3.8 23.5,9.4 z"
                 id="path26"
                 inkscape:connector-curvature="0"
                 style="fill:#ffffff;stroke:#000000;stroke-width:0.37795275;stroke-miterlimit:4;stroke-dasharray:none;stroke-opacity:1" />
              <path
                 class="st2"
                 d="m 170.7,712 c 2.1,3.5 3.3,7.4 3.3,11.5 h 18.7 c 0,-9.5 -3.3,-18.3 -8.9,-25.1 z"
                 id="path28"
                 inkscape:connector-curvature="0"
                 style="fill:#ffffff;stroke:#000000;stroke-width:0.37795275;stroke-miterlimit:4;stroke-dasharray:none;stroke-opacity:1" />
            </g>
            <g
               id="g3849"
               style="stroke:#000000;stroke-width:0.37795275;stroke-miterlimit:4;stroke-dasharray:none;stroke-opacity:1">
              <path
                 style="fill:#ffffff;stroke:#000000;stroke-width:0.37795275;stroke-miterlimit:4;stroke-dasharray:none;stroke-opacity:1"
                 inkscape:connector-curvature="0"
                 id="path3845"
                 d="m 166.7,707 14.9,-11.2 c -7.3,-7.7 -17.6,-12.4 -29,-12.4 -21.1,0 -38.5,16.4 -40,37.1 1.3,-12.8 14.5,-22.9 30.6,-22.9 9.5,0.1 17.9,3.8 23.5,9.4 z"
                 class="st2" />
              <path
                 style="fill:#ffffff;stroke:#000000;stroke-width:0.37795275;stroke-miterlimit:4;stroke-dasharray:none;stroke-opacity:1"
                 inkscape:connector-curvature="0"
                 id="path3847"
                 d="m 170.7,712 c 2.1,3.5 3.3,7.4 3.3,11.5 h 18.7 c 0,-9.5 -3.3,-18.3 -8.9,-25.1 z"
                 class="st2" />
            </g>
            <g
               id="g3855"
               style="stroke:#000000;stroke-width:0.37795275;stroke-miterlimit:4;stroke-dasharray:none;stroke-opacity:1">
              <path
                 class="st2"
                 d="m 166.7,707 14.9,-11.2 c -7.3,-7.7 -17.6,-12.4 -29,-12.4 -21.1,0 -38.5,16.4 -40,37.1 1.3,-12.8 14.5,-22.9 30.6,-22.9 9.5,0.1 17.9,3.8 23.5,9.4 z"
                 id="path3851"
                 inkscape:connector-curvature="0"
                 style="fill:#ffffff;stroke:#000000;stroke-width:0.37795275;stroke-miterlimit:4;stroke-dasharray:none;stroke-opacity:1" />
              <path
                 class="st2"
                 d="m 170.7,712 c 2.1,3.5 3.3,7.4 3.3,11.5 h 18.7 c 0,-9.5 -3.3,-18.3 -8.9,-25.1 z"
                 id="path3853"
                 inkscape:connector-curvature="0"
                 style="fill:#ffffff;stroke:#000000;stroke-width:0.37795275;stroke-miterlimit:4;stroke-dasharray:none;stroke-opacity:1" />
            </g>
          </g>
          <polygon
             class="st1"
             points="154.6,726 150.3,721 183.2,696.9 "
             id="polygon34"
             style="fill:#243b5d" />
        </g>
      </g>
      <g
         id="g3875"
         transform="translate(116.22857,-0.64285739)" />
    </g>
  </g>
</svg>
